<svg width="24" height="24" viewBox="0 0 24 24" fill="none" xmlns="http://www.w3.org/2000/svg">
  <path d="M12 2C6.489 2 2 6.305 2 11.5C2 13.94 2.964 16.167 4.554 17.913L3.3 22L7.536 20.889C9.102 21.58 10.811 21.999 12.6 21.999C18.111 22 22.6 17.695 22.6 12.5C22.6 7.305 18.111 2 12.6 2H12Z" fill="#25D366"/>
  <path d="M9.176 7.75C9.035 7.75 8.672 7.802 8.318 8.212C7.965 8.623 7 9.533 7 11.316C7 13.098 8.258 14.808 8.429 15.054C8.6 15.3 10.855 18.55 13.965 19.5C16.037 20.115 16.718 19.914 17.205 19.874C17.693 19.834 18.797 19.182 19.051 18.524C19.306 17.867 19.306 17.293 19.245 17.173C19.184 17.053 18.919 16.953 18.491 16.743C18.063 16.533 16.666 15.847 16.317 15.726C15.969 15.605 15.734 15.546 15.498 15.906C15.262 16.265 14.709 16.956 14.511 17.214C14.314 17.472 14.116 17.504 13.77 17.293C13.424 17.082 12.355 16.688 11.118 15.53C10.188 14.668 9.523 13.62 9.325 13.26C9.127 12.901 9.31 12.71 9.521 12.499C9.694 12.326 9.94 12.011 10.047 11.856C10.164 11.689 10.206 11.54 10.287 11.35C10.368 11.16 10.327 10.969 10.246 10.758C10.164 10.548 9.595 9.11 9.399 8.677C9.202 8.243 9.317 7.75 9.176 7.75Z" fill="white"/>
</svg>

